
<!DOCTYPE svg PUBLIC "-//W3C//DTD SVG 1.1//EN" "http://www.w3.org/Graphics/SVG/1.1/DTD/svg11.dtd">
<svg version="1.1" xmlns="http://www.w3.org/2000/svg" xmlns:xlink="http://www.w3.org/1999/xlink"  viewBox="0 0 1000 1000" enable-background="new 0 0 1000 1000" xml:space="preserve">

<g><g fill="#1976d2" transform="translate(0.000000,511.000000) scale(0.100000,-0.100000)">
<path d="M4412.7,4977.2C2765,4776.9,1338.1,3762,604,2268.4c-1182.9-2411.8-214-5311.6,2179.4-6526.7c1399.2-708.8,3033.2-711.1,4430.1-2.3c1937.8,985,2998.7,3127.6,2605.2,5258.6C9498.7,2740.2,8233,4199.3,6562.2,4753.9C5862.6,4986.4,5123.9,5062.3,4412.7,4977.2z M7273.3,2979.6c52.9-34.5,124.3-105.9,158.8-158.8l64.4-96.6V121.3v-2602.8l-64.4-96.7c-34.5-52.9-105.9-124.3-158.8-158.8l-96.7-64.4H4999.6H2822.5l-96.7,64.4c-52.9,34.5-124.3,105.9-158.8,158.8l-64.4,96.7l-6.9,2554.5c-4.6,1686.9,2.3,2584.4,16.1,2637.4c32.2,112.8,145,239.3,260,296.9l99,48.3l2154.1-4.6l2151.8-6.9L7273.3,2979.6z"/>
<path d="M3812.1,2296.1c-122-48.3-124.3-66.7-124.3-881.4c0-830.8,2.3-840,142.7-888.3c99-34.5,2239.2-34.5,2338.2,0c140.4,48.3,142.7,55.2,142.7,892.9v759.5l-55.2,64.4l-55.2,64.4l-1171.4,4.6C4387.4,2314.5,3837.4,2307.6,3812.1,2296.1z"/>
<path d="M2859.3,2019.9v-253.2h218.6h218.6v253.2v253.1h-218.6h-218.6V2019.9z"/>
<path d="M6702.6,2019.9v-253.2h218.6h218.6v253.2v253.1h-218.6h-218.6V2019.9z"/>
<path d="M2875.4,1313.4c-9.2-6.9-16.1-122-16.1-253.1v-237h218.6h218.6v253.1v253.2h-202.5C2981.3,1329.5,2882.3,1322.6,2875.4,1313.4z"/>
<path d="M6702.6,1076.3V823.2h218.6h218.6v253.1v253.2h-218.6h-218.6V1076.3z"/>
<path d="M2859.3,109.8v-253.2h218.6h218.6v253.2v253.1h-218.6h-218.6V109.8z"/>
<path d="M6702.6,109.8v-253.2h218.6h218.6v253.2v253.1h-218.6h-218.6V109.8z"/>
<path d="M3816.7-293c-128.9-69-126.6-52.9-128.9-881.4v-768.7l66.7-66.7l66.7-66.8h1178.3h1178.3l66.7,66.8l66.7,66.7v768.7c0,750.2-2.3,771-48.3,821.6c-25.3,27.6-73.6,59.8-105.9,73.6c-32.2,11.5-529.3,20.7-1164.5,20.7C4046.8-258.5,3874.2-263.1,3816.7-293z"/>
<path d="M2863.9-849.9l6.9-248.5l214-6.9l211.7-6.9v255.4v253.1h-218.6H2857L2863.9-849.9z"/>
<path d="M6702.6-856.8v-255.4l214,6.9l211.7,6.9l6.9,248.5l6.9,246.3h-220.9h-218.6V-856.8z"/>
<path d="M2859.3-1800.4v-253.1h218.6h218.6v253.1v253.1h-218.6h-218.6V-1800.4z"/>
<path d="M6702.6-1800.4v-253.1h218.6h218.6v253.1v253.1h-218.6h-218.6V-1800.4z"/></g></g>
</svg>